<svg width="20" height="20" viewBox="0 0 20 20" fill="none" xmlns="http://www.w3.org/2000/svg">
<g clip-path="url(#clip0_219_6564)">
<path d="M12.32 3.27148C12.9037 3.27145 13.4654 3.49448 13.8901 3.89493C14.3148 4.29537 14.5704 4.84298 14.6046 5.42569L14.6084 5.55995V16.2394C14.6085 16.367 14.5765 16.4926 14.5154 16.6046C14.4544 16.7167 14.3662 16.8116 14.259 16.8808C14.1517 16.9499 14.0289 16.991 13.9016 17.0004C13.7743 17.0098 13.6468 16.9871 13.5306 16.9344L13.4535 16.8932L10.0307 14.8404L6.6095 16.8932C6.5001 16.9588 6.37599 16.996 6.24851 17.0013C6.12104 17.0065 5.99428 16.9798 5.87983 16.9234C5.76538 16.867 5.66691 16.7828 5.59342 16.6785C5.51993 16.5742 5.47377 16.4531 5.45917 16.3264L5.45459 16.2394V5.55995C5.45456 4.97623 5.67758 4.41456 6.07803 3.98986C6.47848 3.56516 7.02608 3.30954 7.6088 3.2753L7.74305 3.27148H12.32Z" fill="#C97B2C"/>
</g>
<defs>
<clipPath id="clip0_219_6564">
<rect width="18.3077" height="18.3077" fill="white" transform="translate(0.876953 0.984375)"/>
</clipPath>
</defs>
</svg>
