<svg width="25" height="24" viewBox="0 0 25 24" fill="none" xmlns="http://www.w3.org/2000/svg">
<path d="M8.1665 9.5C7.83498 9.5 7.51704 9.6317 7.28262 9.86612C7.0482 10.1005 6.9165 10.4185 6.9165 10.75C6.9165 11.0815 7.0482 11.3995 7.28262 11.6339C7.51704 11.8683 7.83498 12 8.1665 12C8.49802 12 8.81597 11.8683 9.05039 11.6339C9.28481 11.3995 9.4165 11.0815 9.4165 10.75C9.4165 10.4185 9.28481 10.1005 9.05039 9.86612C8.81597 9.6317 8.49802 9.5 8.1665 9.5ZM12.1665 9.5C11.835 9.5 11.517 9.6317 11.2826 9.86612C11.0482 10.1005 10.9165 10.4185 10.9165 10.75C10.9165 11.0815 11.0482 11.3995 11.2826 11.6339C11.517 11.8683 11.835 12 12.1665 12C12.498 12 12.816 11.8683 13.0504 11.6339C13.2848 11.3995 13.4165 11.0815 13.4165 10.75C13.4165 10.4185 13.2848 10.1005 13.0504 9.86612C12.816 9.6317 12.498 9.5 12.1665 9.5ZM14.9165 10.75C14.9165 10.4185 15.0482 10.1005 15.2826 9.86612C15.517 9.6317 15.835 9.5 16.1665 9.5C16.498 9.5 16.816 9.6317 17.0504 9.86612C17.2848 10.1005 17.4165 10.4185 17.4165 10.75C17.4165 11.0815 17.2848 11.3995 17.0504 11.6339C16.816 11.8683 16.498 12 16.1665 12C15.835 12 15.517 11.8683 15.2826 11.6339C15.0482 11.3995 14.9165 11.0815 14.9165 10.75Z" fill="#BDBDBD"/>
<path fill-rule="evenodd" clip-rule="evenodd" d="M16.2665 4.59311C13.5726 4.36335 10.8646 4.34997 8.1685 4.55311L7.9755 4.56811C6.73591 4.66166 5.57742 5.22005 4.73203 6.13145C3.88663 7.04286 3.41676 8.23999 3.4165 9.48311V18.0001C3.41662 18.1298 3.45034 18.2572 3.51439 18.3699C3.57843 18.4826 3.67061 18.5769 3.78192 18.6433C3.89323 18.7098 4.01988 18.7463 4.1495 18.7493C4.27912 18.7522 4.40729 18.7215 4.5215 18.6601L8.4315 16.5591C8.61379 16.4611 8.81755 16.4099 9.0245 16.4101H18.0005C19.1325 16.4101 20.1025 15.6001 20.3055 14.4871C20.7175 12.2301 20.7495 9.92011 20.4015 7.65211L20.2995 6.98311C20.2088 6.39192 19.9219 5.84841 19.485 5.43996C19.048 5.03151 18.4865 4.78185 17.8905 4.73111L16.2665 4.59311ZM8.2825 6.04911C10.8986 5.85172 13.5264 5.86443 16.1405 6.08711L17.7645 6.22611C18.3005 6.27211 18.7365 6.67911 18.8175 7.21111L18.9205 7.87911C19.2426 9.98245 19.2122 12.1248 18.8305 14.2181C18.7952 14.4122 18.6928 14.5878 18.5414 14.7143C18.3899 14.8407 18.1988 14.91 18.0015 14.9101H9.0245C8.57007 14.9102 8.12274 15.0229 7.7225 15.2381L4.9165 16.7461V9.48211C4.91656 8.61729 5.24329 7.7844 5.83129 7.15023C6.41929 6.51606 7.22515 6.12741 8.0875 6.06211L8.2815 6.04811L8.2825 6.04911Z" fill="#BDBDBD"/>
</svg>
