<svg width="17" height="18" viewBox="0 0 17 18" fill="none" xmlns="http://www.w3.org/2000/svg">
<path d="M6.51658 16.5758H3.0332V11.2055C3.0332 10.6531 3.48509 10.2012 4.03756 10.2012H5.5108C6.06327 10.2012 6.51516 10.6531 6.51516 11.2055V16.5758H6.51658Z" fill="#795548"/>
<path opacity="0.2" d="M5.51178 10.6261C5.83193 10.6261 6.09116 10.8868 6.09116 11.2055V16.1508H3.45774V11.2055C3.45774 10.8854 3.71839 10.6261 4.03712 10.6261H5.51178ZM5.51178 10.2012H4.03854C3.48607 10.2012 3.03418 10.6531 3.03418 11.2055V16.5758H6.51614V11.2055C6.51614 10.6531 6.06425 10.2012 5.51178 10.2012Z" fill="#424242"/>
<path d="M0.0653618 7.86238C0.156023 5.87208 3.37591 0.381415 3.37591 0.381415C3.54874 -0.127138 4.50351 -0.127138 4.67633 0.381415C4.67633 0.381415 7.80131 5.92167 7.79423 7.9063C7.78856 9.86401 7.31259 12.5796 4.02612 12.5796C0.643327 12.5796 -0.0252994 9.81726 0.0653618 7.86238Z" fill="url(#paint0_radial_219_6441)"/>
<path opacity="0.2" d="M4.02612 0.454723C4.1607 0.454723 4.23861 0.507136 4.24569 0.526968L4.25986 0.566633L4.28111 0.603464C5.13247 2.11637 7.34376 6.37462 7.33951 7.90452C7.33101 10.783 6.27707 12.1245 4.02612 12.1245C2.93819 12.1245 2.08966 11.8129 1.50319 11.1995C0.559749 10.2121 0.481837 8.69781 0.518668 7.88186C0.589497 6.34345 2.88861 2.11071 3.76831 0.610547L3.79097 0.570882L3.80514 0.526968C3.81222 0.507136 3.89013 0.454723 4.02612 0.454723ZM4.02612 0C3.74422 0 3.46232 0.127492 3.37591 0.38106C3.37591 0.38106 0.156023 5.87173 0.0653618 7.86203C-0.0252994 9.81691 0.643327 12.5792 4.02612 12.5792C7.31259 12.5792 7.78856 9.86366 7.79423 7.90594C7.7999 5.92131 4.67633 0.38106 4.67633 0.38106C4.58992 0.127492 4.30802 0 4.02612 0Z" fill="#424242"/>
<path d="M0.143447 15.9761C0.139197 15.8104 0.147697 15.52 0.234108 15.2253C0.336102 14.8782 0.561338 14.4391 1.04864 14.3201C1.12797 14.3003 1.20872 14.2904 1.28804 14.2904C1.35179 14.2904 1.41695 14.296 1.4807 14.3088C1.4892 14.3102 1.49912 14.3116 1.50761 14.3116C1.56994 14.3116 1.62519 14.2705 1.64361 14.2096C1.7711 13.7733 2.17624 13.4688 2.63096 13.4688C2.98936 13.4688 3.31517 13.6501 3.505 13.9546C3.53191 13.9971 3.57724 14.0212 3.6254 14.0212C3.63674 14.0212 3.64807 14.0198 3.6594 14.017C3.74015 13.9971 3.82231 13.9872 3.90447 13.9872C3.9668 13.9872 4.02913 13.9929 4.09004 14.0042C4.5391 14.085 4.88191 14.449 4.92583 14.891C4.93999 15.0327 4.91308 15.1715 4.85075 15.2834C4.81958 15.3386 4.82525 15.4151 4.87058 15.4605C4.97257 15.5625 4.97682 15.7324 4.92866 15.8472C4.91308 15.8854 4.86633 15.9747 4.78417 15.9747H0.143447V15.9761Z" fill="url(#paint1_radial_219_6441)"/>
<path d="M2.6308 13.6114C2.93961 13.6114 3.22151 13.7687 3.38442 14.0307C3.43684 14.1157 3.52891 14.1639 3.62524 14.1639C3.64791 14.1639 3.67057 14.1611 3.69324 14.1554C3.76265 14.1384 3.83348 14.1299 3.90431 14.1299C3.95814 14.1299 4.01197 14.1342 4.0658 14.1441C4.44544 14.2121 4.74859 14.5322 4.78542 14.9048C4.79675 15.0181 4.7755 15.1272 4.72734 15.2136C4.6466 15.3581 4.70043 15.4898 4.76984 15.5607C4.80384 15.5947 4.82084 15.6556 4.81517 15.7207C4.8095 15.7816 4.78542 15.8213 4.77409 15.8341H0.284941C0.289191 15.6782 0.309023 15.4714 0.369936 15.2646C0.503095 14.8113 0.743913 14.5393 1.08248 14.4571C1.15047 14.4401 1.21988 14.4316 1.2893 14.4316C1.34454 14.4316 1.39979 14.4373 1.45504 14.4472C1.47345 14.4501 1.49045 14.4529 1.50745 14.4529C1.63069 14.4529 1.74402 14.3721 1.77943 14.2489C1.88851 13.8735 2.23841 13.6114 2.6308 13.6114ZM2.6308 13.3281C2.09817 13.3281 1.64911 13.6837 1.50745 14.171C1.43662 14.1582 1.36296 14.1497 1.28788 14.1497C1.19864 14.1497 1.10797 14.1597 1.01448 14.1823C0.52576 14.3013 0.23961 14.7022 0.0979523 15.1853C-0.0408727 15.6556 0.0101243 16.1145 0.0101243 16.1188H4.78542C5.0829 16.1188 5.22031 15.6117 4.97099 15.3623C4.96958 15.3609 5.09707 15.1768 5.06732 14.8793C5.01774 14.3721 4.61685 13.9585 4.11679 13.8678C4.04455 13.8551 3.97514 13.8494 3.90572 13.8494C3.8094 13.8494 3.7159 13.8608 3.62666 13.8834C3.41842 13.5491 3.05011 13.3281 2.6308 13.3281Z" fill="#689F38"/>
<path d="M3.78062 14.6429C3.78062 14.6429 3.79195 14.3227 3.53271 13.9785" stroke="#689F38" stroke-width="0.269169" stroke-miterlimit="10" stroke-linecap="round" stroke-linejoin="round"/>
<path d="M1.52637 14.3027C1.82952 14.3084 2.12558 14.545 2.1695 14.8368" stroke="#689F38" stroke-width="0.269169" stroke-miterlimit="10" stroke-linecap="round" stroke-linejoin="round"/>
<path d="M1.8374 14.9724C2.10372 14.8519 2.46211 14.8704 2.73693 15.0106" stroke="#689F38" stroke-width="0.269169" stroke-miterlimit="10" stroke-linecap="round" stroke-linejoin="round"/>
<path d="M9.92041 2.55078L3.31348 8.21427H3.7852V16.5679H16.0556V8.21427H16.5273L9.92041 2.55078Z" fill="url(#paint2_radial_219_6441)"/>
<path opacity="0.2" d="M9.91944 3.10642L15.6679 8.03329C15.6438 8.08712 15.6297 8.14662 15.6297 8.20895V16.1376H4.2092V8.21037C4.2092 8.14804 4.19503 8.08712 4.17095 8.03471L9.91944 3.10642ZM9.91944 2.54688L3.3125 8.21037H3.78422V16.5639H16.0546V8.21037H16.5264L9.91944 2.54688Z" fill="#424242"/>
<path opacity="0.2" d="M10.9803 5.14464C11.1106 5.14464 11.2168 5.25089 11.2168 5.38121V7.50467C11.2168 7.63499 11.1106 7.74124 10.9803 7.74124H8.8568C8.72647 7.74124 8.62023 7.63499 8.62023 7.50467V5.3798C8.62023 5.24947 8.72647 5.14323 8.8568 5.14323H10.9803M10.9803 4.86133H8.8568C8.57065 4.86133 8.33691 5.09365 8.33691 5.38121V7.50467C8.33691 7.79082 8.56923 8.02455 8.8568 8.02455H10.9803C11.2664 8.02455 11.5001 7.79224 11.5001 7.50467V5.3798C11.5001 5.09365 11.2678 4.86133 10.9803 4.86133Z" fill="#424242"/>
<path opacity="0.2" d="M13.9309 9.15441C14.0612 9.15441 14.1675 9.26065 14.1675 9.39098V12.6944C14.1675 12.8248 14.0612 12.931 13.9309 12.931H11.806C11.6757 12.931 11.5694 12.8248 11.5694 12.6944V9.39098C11.5694 9.26065 11.6757 9.15441 11.806 9.15441H13.9309ZM13.9309 8.87109H11.806C11.5199 8.87109 11.2861 9.10341 11.2861 9.39098V12.6944C11.2861 12.9806 11.5185 13.2143 11.806 13.2143H13.9295C14.2156 13.2143 14.4494 12.982 14.4494 12.6944V9.39098C14.4494 9.10483 14.217 8.87109 13.9309 8.87109Z" fill="#424242"/>
<path d="M9.92025 14.8188H5.67334V8.92016C5.67334 8.78984 5.77958 8.68359 5.90991 8.68359H9.6851C9.81542 8.68359 9.92167 8.78984 9.92167 8.92016V14.8188H9.92025Z" fill="url(#paint3_radial_219_6441)"/>
<path d="M9.44839 14.5361H6.14492C6.07976 14.5361 6.02734 14.4837 6.02734 14.4185V9.09219C6.02734 9.02702 6.07976 8.97461 6.14492 8.97461H9.44839C9.51355 8.97461 9.56596 9.02702 9.56596 9.09219V14.4185C9.56596 14.4837 9.51355 14.5361 9.44839 14.5361Z" fill="url(#paint4_radial_219_6441)"/>
<path d="M8.7998 5.32422H11.0408V7.56525H8.7998V5.32422Z" fill="#4FC3F7"/>
<path d="M8.62305 5.38305V7.50651C8.62305 7.63683 8.72929 7.74308 8.85962 7.74308H10.9831C11.1134 7.74308 11.2196 7.63683 11.2196 7.50651V5.38305C11.2196 5.25273 11.1134 5.14648 10.9831 5.14648H8.8582C8.72787 5.1479 8.62305 5.25273 8.62305 5.38305ZM10.9817 6.3265H10.0382V5.38305H10.9817V6.3265ZM9.80306 5.38305V6.3265H8.85962V5.38305H9.80306ZM8.8582 6.56307H9.80164V7.50651H8.8582V6.56307ZM10.0382 7.50651V6.56307H10.9817V7.50651H10.0382Z" fill="#EEEEEE"/>
<path d="M11.6943 9.33594H14.0473V12.757H11.6943V9.33594Z" fill="#4FC3F7"/>
<path d="M9.09361 11.2775H6.49844C6.43327 11.2775 6.38086 11.2251 6.38086 11.1599V9.5082C6.38086 9.44304 6.43327 9.39062 6.49844 9.39062H9.09361C9.15877 9.39062 9.21119 9.44304 9.21119 9.5082V11.1599C9.21119 11.2251 9.15877 11.2775 9.09361 11.2775Z" fill="url(#paint5_radial_219_6441)"/>
<path d="M9.09361 14.1086H6.49844C6.43327 14.1086 6.38086 14.0562 6.38086 13.991V11.8676C6.38086 11.8024 6.43327 11.75 6.49844 11.75H9.09361C9.15877 11.75 9.21119 11.8024 9.21119 11.8676V13.991C9.21119 14.0562 9.15877 14.1086 9.09361 14.1086Z" fill="url(#paint6_radial_219_6441)"/>
<path d="M10.3949 15.2122H5.20312V14.7801C5.20312 14.6186 5.33345 14.4883 5.49494 14.4883H10.1017C10.2632 14.4883 10.3935 14.6186 10.3935 14.7801V15.2122H10.3949Z" fill="url(#paint7_linear_219_6441)"/>
<path opacity="0.3" d="M10.1036 14.6299C10.1872 14.6299 10.2538 14.6979 10.2538 14.7801V15.0705H5.34532V14.7801C5.34532 14.6965 5.41332 14.6299 5.49548 14.6299H10.1036ZM10.1036 14.4883H5.49689C5.3354 14.4883 5.20508 14.6186 5.20508 14.7801V15.2122H10.3968V14.7801C10.3954 14.6186 10.2651 14.4883 10.1036 14.4883Z" fill="#263238"/>
<path opacity="0.2" d="M7.62392 14.7754C7.63465 14.7502 7.60192 14.7121 7.55082 14.6904C7.49971 14.6686 7.44959 14.6714 7.43886 14.6966C7.42813 14.7218 7.46086 14.7598 7.51196 14.7816C7.56307 14.8034 7.61319 14.8006 7.62392 14.7754Z" fill="#424242"/>
<path opacity="0.2" d="M9.84714 15.0089C9.86242 14.9901 9.84626 14.9517 9.81103 14.9231C9.77581 14.8945 9.73486 14.8865 9.71957 14.9054C9.70429 14.9242 9.72045 14.9626 9.75568 14.9912C9.7909 15.0198 9.83185 15.0278 9.84714 15.0089Z" fill="#424242"/>
<path opacity="0.08" d="M7.83179 14.9686C7.89907 14.9686 7.95361 14.942 7.95361 14.9091C7.95361 14.8762 7.89907 14.8496 7.83179 14.8496C7.7645 14.8496 7.70996 14.8762 7.70996 14.9091C7.70996 14.942 7.7645 14.9686 7.83179 14.9686Z" fill="#424242"/>
<path opacity="0.08" d="M8.87915 14.9666C8.94643 14.9666 9.00098 14.94 9.00098 14.9072C9.00098 14.8743 8.94643 14.8477 8.87915 14.8477C8.81187 14.8477 8.75732 14.8743 8.75732 14.9072C8.75732 14.94 8.81187 14.9666 8.87915 14.9666Z" fill="#424242"/>
<path opacity="0.08" d="M8.6285 14.8051C8.67466 14.8051 8.71208 14.7823 8.71208 14.7541C8.71208 14.726 8.67466 14.7031 8.6285 14.7031C8.58234 14.7031 8.54492 14.726 8.54492 14.7541C8.54492 14.7823 8.58234 14.8051 8.6285 14.8051Z" fill="#424242"/>
<path opacity="0.08" d="M9.9915 14.8457C10.058 14.8457 10.1119 14.8133 10.1119 14.7734C10.1119 14.7335 10.058 14.7012 9.9915 14.7012C9.925 14.7012 9.87109 14.7335 9.87109 14.7734C9.87109 14.8133 9.925 14.8457 9.9915 14.8457Z" fill="#424242"/>
<path opacity="0.08" d="M7.10506 14.7775C7.15122 14.7775 7.18864 14.7591 7.18864 14.7364C7.18864 14.7137 7.15122 14.6953 7.10506 14.6953C7.0589 14.6953 7.02148 14.7137 7.02148 14.7364C7.02148 14.7591 7.0589 14.7775 7.10506 14.7775Z" fill="#424242"/>
<path opacity="0.08" d="M9.51466 14.877C9.58893 14.8658 9.64469 14.8273 9.63921 14.7909C9.63373 14.7546 9.56909 14.7342 9.49482 14.7454C9.42056 14.7566 9.36479 14.7951 9.37027 14.8315C9.37575 14.8678 9.4404 14.8882 9.51466 14.877Z" fill="#424242"/>
<path opacity="0.2" d="M7.31185 14.962C7.38268 14.9454 7.43343 14.9035 7.42521 14.8684C7.41698 14.8334 7.35289 14.8185 7.28206 14.8351C7.21123 14.8518 7.16048 14.8936 7.1687 14.9287C7.17693 14.9637 7.24102 14.9786 7.31185 14.962Z" fill="#424242"/>
<path opacity="0.2" d="M9.09587 14.7957C9.18819 14.7957 9.26302 14.7684 9.26302 14.7347C9.26302 14.7011 9.18819 14.6738 9.09587 14.6738C9.00355 14.6738 8.92871 14.7011 8.92871 14.7347C8.92871 14.7684 9.00355 14.7957 9.09587 14.7957Z" fill="#424242"/>
<path opacity="0.2" d="M8.11669 14.7446C8.16307 14.714 8.18985 14.6728 8.1765 14.6525C8.16316 14.6323 8.11474 14.6406 8.06836 14.6712C8.02197 14.7018 7.99519 14.743 8.00854 14.7632C8.02189 14.7835 8.07031 14.7751 8.11669 14.7446Z" fill="#424242"/>
<path opacity="0.2" d="M8.55483 14.9672C8.57058 14.9331 8.51253 14.8728 8.42517 14.8324C8.33781 14.7921 8.25423 14.787 8.23848 14.8211C8.22273 14.8552 8.28078 14.9155 8.36814 14.9559C8.45549 14.9962 8.53908 15.0013 8.55483 14.9672Z" fill="#424242"/>
<path opacity="0.2" d="M6.6489 15.0675C6.66418 15.0487 6.64802 15.0103 6.61279 14.9817C6.57757 14.9531 6.53662 14.9451 6.52133 14.964C6.50604 14.9828 6.52221 15.0212 6.55743 15.0498C6.59266 15.0784 6.63361 15.0864 6.6489 15.0675Z" fill="#424242"/>
<path opacity="0.08" d="M5.68188 15.0174C5.74917 15.0174 5.80371 14.9908 5.80371 14.9579C5.80371 14.9251 5.74917 14.8984 5.68188 14.8984C5.6146 14.8984 5.56006 14.9251 5.56006 14.9579C5.56006 14.9908 5.6146 15.0174 5.68188 15.0174Z" fill="#424242"/>
<path opacity="0.08" d="M5.43123 14.8618C5.47739 14.8618 5.51481 14.8389 5.51481 14.8108C5.51481 14.7826 5.47739 14.7598 5.43123 14.7598C5.38508 14.7598 5.34766 14.7826 5.34766 14.8108C5.34766 14.8389 5.38508 14.8618 5.43123 14.8618Z" fill="#424242"/>
<path opacity="0.08" d="M6.79326 14.9023C6.85976 14.9023 6.91367 14.87 6.91367 14.8301C6.91367 14.7902 6.85976 14.7578 6.79326 14.7578C6.72676 14.7578 6.67285 14.7902 6.67285 14.8301C6.67285 14.87 6.72676 14.9023 6.79326 14.9023Z" fill="#424242"/>
<path opacity="0.08" d="M6.31691 14.9317C6.39117 14.9205 6.44693 14.882 6.44146 14.8456C6.43598 14.8093 6.37133 14.7889 6.29707 14.8C6.2228 14.8112 6.16704 14.8498 6.17252 14.8861C6.178 14.9225 6.24264 14.9429 6.31691 14.9317Z" fill="#424242"/>
<path opacity="0.2" d="M5.89811 14.8503C5.99043 14.8503 6.06527 14.8231 6.06527 14.7894C6.06527 14.7558 5.99043 14.7285 5.89811 14.7285C5.8058 14.7285 5.73096 14.7558 5.73096 14.7894C5.73096 14.8231 5.8058 14.8503 5.89811 14.8503Z" fill="#424242"/>
<path d="M11.8074 9.15625C11.677 9.15625 11.5708 9.26249 11.5708 9.39282V12.6963C11.5708 12.8266 11.677 12.9329 11.8074 12.9329H13.9308C14.0612 12.9329 14.1674 12.8266 14.1674 12.6963V9.39282C14.1674 9.26249 14.0612 9.15625 13.9308 9.15625H11.8074ZM12.9874 9.39282H13.9308V10.3363H12.9874V9.39282ZM11.8074 9.39282H12.7508V10.3363H11.8074V9.39282ZM11.8074 10.5728H12.7508V11.5163H11.8074V10.5728ZM12.7522 12.6963H11.8088V11.7528H12.7522V12.6963ZM13.9322 12.6963H12.9888V11.7528H13.9322V12.6963ZM12.9874 11.5163V10.5728H13.9308V11.5163H12.9874Z" fill="#EEEEEE"/>
<path d="M9.06367 12.1303C8.79027 12.1303 8.56787 11.9079 8.56787 11.6345C8.56787 11.3611 8.79027 11.1387 9.06367 11.1387C9.33707 11.1387 9.55948 11.3611 9.55948 11.6345C9.55948 11.9079 9.33707 12.1303 9.06367 12.1303Z" fill="#FFC107"/>
<path d="M9.06373 11.2814C9.25922 11.2814 9.41788 11.44 9.41788 11.6355C9.41788 11.831 9.25922 11.9897 9.06373 11.9897C8.86824 11.9897 8.70959 11.831 8.70959 11.6355C8.70959 11.44 8.86824 11.2814 9.06373 11.2814ZM9.06373 10.998C8.71242 10.998 8.42627 11.2842 8.42627 11.6355C8.42627 11.9868 8.71242 12.273 9.06373 12.273C9.41504 12.273 9.70119 11.9868 9.70119 11.6355C9.70119 11.2842 9.41504 10.998 9.06373 10.998Z" fill="#C62828"/>
<path d="M14.2852 13.4058H11.4548C11.3245 13.4058 11.2183 13.2996 11.2183 13.1692V12.6975C11.2183 12.5672 11.3245 12.4609 11.4548 12.4609H14.2866C14.4169 12.4609 14.5231 12.5672 14.5231 12.6975V13.1692C14.5217 13.2996 14.4155 13.4058 14.2852 13.4058Z" fill="#795548"/>
<path opacity="0.2" d="M14.2852 12.6975V13.1692H11.4548V12.6975H14.2852ZM14.2852 12.4609H11.4548C11.3245 12.4609 11.2183 12.5672 11.2183 12.6975V13.1692C11.2183 13.2996 11.3245 13.4058 11.4548 13.4058H14.2866C14.4169 13.4058 14.5231 13.2996 14.5231 13.1692V12.6975C14.5217 12.5672 14.4155 12.4609 14.2852 12.4609Z" fill="#424242"/>
<path d="M16.7968 7.88203L10.2975 2.21854C10.0808 2.02872 9.75924 2.02872 9.54251 2.21854L3.04465 7.88203C2.801 8.09452 2.77266 8.46708 2.98232 8.71356C3.19056 8.96147 3.55745 8.9898 3.8011 8.77731L9.68983 3.64645C9.82299 3.53029 10.0213 3.53029 10.1545 3.64645L16.0432 8.77731C16.1523 8.87222 16.2869 8.91897 16.42 8.91897C16.5829 8.91897 16.7458 8.84956 16.8606 8.71356C17.0688 8.46708 17.0405 8.09452 16.7968 7.88203Z" fill="url(#paint8_radial_219_6441)"/>
<path opacity="0.2" d="M9.92074 2.50115C9.94623 2.50115 9.98307 2.50823 10.0199 2.53798L16.5192 8.20147C16.5872 8.26097 16.5957 8.37004 16.5362 8.43945C16.4965 8.48762 16.4469 8.4947 16.42 8.4947C16.3945 8.4947 16.3577 8.48762 16.3223 8.45787L10.4321 3.3256C10.2905 3.20235 10.1091 3.13436 9.92074 3.13436C9.73233 3.13436 9.55101 3.20235 9.40935 3.3256L3.52062 8.45645C3.48521 8.48762 3.44696 8.49329 3.42288 8.49329C3.39738 8.49329 3.3478 8.4862 3.30672 8.43804C3.24864 8.36863 3.25572 8.25955 3.32372 8.20005L9.82299 2.53656C9.85699 2.50823 9.89524 2.50115 9.92074 2.50115ZM9.92074 2.07617C9.78616 2.07617 9.65159 2.12292 9.54251 2.21783L3.04465 7.88132C2.801 8.09381 2.77266 8.46637 2.98232 8.71285C3.09706 8.84885 3.25997 8.91826 3.42288 8.91826C3.55603 8.91826 3.69061 8.87151 3.79969 8.7766L9.68842 3.64574C9.755 3.58766 9.83857 3.55933 9.92074 3.55933C10.0029 3.55933 10.0865 3.58766 10.1531 3.64574L16.0418 8.7766C16.1509 8.87151 16.2854 8.91826 16.4186 8.91826C16.5815 8.91826 16.7444 8.84885 16.8592 8.71285C17.0674 8.46495 17.0391 8.09381 16.7968 7.88132L10.2975 2.21783C10.1899 2.12434 10.0553 2.07617 9.92074 2.07617Z" fill="#424242"/>
<path d="M10.8671 15.8716H4.73193V15.3758C4.73193 15.2058 4.86934 15.0684 5.03933 15.0684H10.5583C10.7283 15.0684 10.8657 15.2058 10.8657 15.3758V15.8716H10.8671Z" fill="url(#paint9_linear_219_6441)"/>
<path opacity="0.3" d="M10.5588 15.21C10.6509 15.21 10.7246 15.2851 10.7246 15.3758V15.7299H4.87266V15.3758C4.87266 15.2837 4.94774 15.21 5.0384 15.21H10.5588ZM10.5588 15.0684H5.03982C4.86983 15.0684 4.73242 15.2058 4.73242 15.3758V15.8716H10.8676V15.3758C10.8662 15.2058 10.7288 15.0684 10.5588 15.0684Z" fill="#263238"/>
<path opacity="0.2" d="M10.0197 15.4297C10.0763 15.4091 10.1144 15.3709 10.1048 15.3445C10.0951 15.318 10.0414 15.3132 9.98483 15.3338C9.92822 15.3544 9.89013 15.3926 9.89975 15.419C9.90938 15.4455 9.96308 15.4503 10.0197 15.4297Z" fill="#424242"/>
<path opacity="0.2" d="M7.54405 15.6426C7.58412 15.6153 7.60517 15.5763 7.59106 15.5557C7.57696 15.535 7.53304 15.5404 7.49296 15.5677C7.45289 15.595 7.43185 15.634 7.44595 15.6546C7.46006 15.6753 7.50398 15.6699 7.54405 15.6426Z" fill="#424242"/>
<path opacity="0.08" d="M9.67022 15.617C9.74454 15.617 9.8048 15.5904 9.8048 15.5575C9.8048 15.5247 9.74454 15.498 9.67022 15.498C9.5959 15.498 9.53564 15.5247 9.53564 15.5575C9.53564 15.5904 9.5959 15.617 9.67022 15.617Z" fill="#424242"/>
<path opacity="0.08" d="M8.51446 15.6092C8.58878 15.6092 8.64903 15.5826 8.64903 15.5497C8.64903 15.5169 8.58878 15.4902 8.51446 15.4902C8.44013 15.4902 8.37988 15.5169 8.37988 15.5497C8.37988 15.5826 8.44013 15.6092 8.51446 15.6092Z" fill="#424242"/>
<path opacity="0.08" d="M8.79227 15.4516C8.84313 15.4516 8.88435 15.4288 8.88435 15.4006C8.88435 15.3724 8.84313 15.3496 8.79227 15.3496C8.74142 15.3496 8.7002 15.3724 8.7002 15.4006C8.7002 15.4288 8.74142 15.4516 8.79227 15.4516Z" fill="#424242"/>
<path opacity="0.08" d="M7.28892 15.4921C7.36246 15.4921 7.42208 15.4598 7.42208 15.4199C7.42208 15.38 7.36246 15.3477 7.28892 15.3477C7.21538 15.3477 7.15576 15.38 7.15576 15.4199C7.15576 15.4598 7.21538 15.4921 7.28892 15.4921Z" fill="#424242"/>
<path opacity="0.08" d="M10.472 15.4201C10.5228 15.4201 10.564 15.4017 10.564 15.379C10.564 15.3563 10.5228 15.3379 10.472 15.3379C10.4211 15.3379 10.3799 15.3563 10.3799 15.379C10.3799 15.4017 10.4211 15.4201 10.472 15.4201Z" fill="#424242"/>
<path opacity="0.08" d="M7.97336 15.4745C7.97809 15.438 7.91524 15.3998 7.833 15.3892C7.75076 15.3785 7.68026 15.3995 7.67554 15.4359C7.67082 15.4724 7.73366 15.5106 7.8159 15.5212C7.89814 15.5319 7.96864 15.511 7.97336 15.4745Z" fill="#424242"/>
<path opacity="0.2" d="M10.4024 15.5737C10.4096 15.5376 10.3521 15.4956 10.2738 15.4799C10.1956 15.4642 10.1263 15.4807 10.1191 15.5168C10.1118 15.5528 10.1694 15.5948 10.2476 15.6105C10.3259 15.6262 10.3951 15.6097 10.4024 15.5737Z" fill="#424242"/>
<path opacity="0.2" d="M8.27644 15.4441C8.37815 15.4441 8.4606 15.4168 8.4606 15.3832C8.4606 15.3495 8.37815 15.3223 8.27644 15.3223C8.17473 15.3223 8.09229 15.3495 8.09229 15.3832C8.09229 15.4168 8.17473 15.4441 8.27644 15.4441Z" fill="#424242"/>
<path opacity="0.2" d="M9.47899 15.4049C9.49141 15.3831 9.45909 15.3413 9.40679 15.3114C9.35448 15.2815 9.30201 15.2748 9.28959 15.2966C9.27716 15.3183 9.30949 15.3602 9.36179 15.3901C9.41409 15.42 9.46656 15.4266 9.47899 15.4049Z" fill="#424242"/>
<path opacity="0.2" d="M9.07525 15.6042C9.17241 15.5648 9.2395 15.5041 9.2251 15.4686C9.2107 15.433 9.12026 15.4362 9.0231 15.4756C8.92593 15.5149 8.85884 15.5757 8.87325 15.6112C8.88765 15.6467 8.97809 15.6436 9.07525 15.6042Z" fill="#424242"/>
<path opacity="0.2" d="M6.53874 15.4844C6.59535 15.4638 6.63345 15.4256 6.62382 15.3991C6.61419 15.3727 6.56049 15.3679 6.50388 15.3885C6.44726 15.4091 6.40917 15.4472 6.4188 15.4737C6.42842 15.5002 6.48212 15.5049 6.53874 15.4844Z" fill="#424242"/>
<path opacity="0.08" d="M6.18877 15.6737C6.2631 15.6737 6.32335 15.647 6.32335 15.6142C6.32335 15.5813 6.2631 15.5547 6.18877 15.5547C6.11445 15.5547 6.0542 15.5813 6.0542 15.6142C6.0542 15.647 6.11445 15.6737 6.18877 15.6737Z" fill="#424242"/>
<path opacity="0.08" d="M5.31132 15.5043C5.36217 15.5043 5.40339 15.4815 5.40339 15.4533C5.40339 15.4252 5.36217 15.4023 5.31132 15.4023C5.26046 15.4023 5.21924 15.4252 5.21924 15.4533C5.21924 15.4815 5.26046 15.5043 5.31132 15.5043Z" fill="#424242"/>
<path opacity="0.2" d="M6.9224 15.6264C6.92964 15.5903 6.87209 15.5484 6.79385 15.5327C6.71562 15.517 6.64633 15.5334 6.63909 15.5695C6.63185 15.6055 6.6894 15.6475 6.76764 15.6632C6.84587 15.6789 6.91516 15.6624 6.9224 15.6264Z" fill="#424242"/>
<path opacity="0.2" d="M5.99705 15.4595C6.00948 15.4378 5.97715 15.3959 5.92485 15.366C5.87255 15.3361 5.82008 15.3295 5.80765 15.3513C5.79523 15.373 5.82755 15.4149 5.87986 15.4448C5.93216 15.4747 5.98463 15.4813 5.99705 15.4595Z" fill="#424242"/>
<path opacity="0.2" d="M5.59429 15.657C5.69146 15.6176 5.75855 15.5568 5.74414 15.5213C5.72974 15.4858 5.6393 15.4889 5.54214 15.5283C5.44498 15.5677 5.37789 15.6284 5.39229 15.6639C5.40669 15.6995 5.49713 15.6963 5.59429 15.657Z" fill="#424242"/>
<path d="M11.9095 16.5901C11.8117 16.5901 11.7593 16.4867 11.7409 16.4428C11.6871 16.3125 11.6927 16.1212 11.8075 16.0065C11.8528 15.9612 11.8571 15.8847 11.8259 15.8294C11.7565 15.7062 11.7267 15.5518 11.7423 15.3945C11.7891 14.9157 12.1772 14.5049 12.6631 14.4171C12.7311 14.4043 12.8005 14.3987 12.8685 14.3987C12.9592 14.3987 13.0498 14.41 13.1391 14.4312C13.1504 14.4341 13.1617 14.4355 13.1731 14.4355C13.2212 14.4355 13.2666 14.4114 13.2935 14.3689C13.5017 14.0332 13.8629 13.832 14.2582 13.832C14.7596 13.832 15.2073 14.1678 15.3475 14.648C15.3659 14.7089 15.4212 14.75 15.4835 14.75C15.492 14.75 15.5005 14.7486 15.5104 14.7471C15.5813 14.7344 15.6521 14.7273 15.7229 14.7273C15.8107 14.7273 15.9 14.7386 15.9878 14.7599C16.4609 14.8746 16.8179 15.2925 16.8548 15.7742C16.8774 16.0759 16.7853 16.3635 16.5927 16.5915H11.9095V16.5901Z" fill="url(#paint10_radial_219_6441)"/>
<path d="M14.2573 13.9747C14.6965 13.9747 15.0875 14.268 15.2107 14.6887C15.2461 14.8119 15.3594 14.8927 15.4827 14.8927C15.4997 14.8927 15.5181 14.8913 15.5351 14.887C15.5974 14.8757 15.6598 14.8686 15.7207 14.8686C15.7972 14.8686 15.8751 14.8785 15.9516 14.8969C16.3666 14.9975 16.6783 15.363 16.7109 15.7837C16.7293 16.0259 16.6627 16.2583 16.521 16.4495L11.9101 16.4509C11.8987 16.4452 11.8633 16.4056 11.8506 16.3277C11.8392 16.2597 11.8463 16.1662 11.9044 16.1081C11.9752 16.0387 12.0276 15.9055 11.9469 15.761C11.8916 15.6619 11.8676 15.5372 11.8803 15.4097C11.9214 14.9932 12.26 14.6348 12.6863 14.5569C12.7458 14.5456 12.8068 14.5414 12.8663 14.5414C12.9456 14.5414 13.0249 14.5513 13.1028 14.5697C13.1255 14.5754 13.1482 14.5782 13.1708 14.5782C13.2671 14.5782 13.3592 14.5286 13.4116 14.445C13.5972 14.1504 13.9117 13.9747 14.2573 13.9747ZM14.2573 13.6914C13.7998 13.6914 13.3975 13.9322 13.1722 14.2949C13.0745 14.2708 12.9725 14.258 12.8677 14.258C12.7926 14.258 12.7161 14.2651 12.6368 14.2793C12.09 14.3784 11.6537 14.8303 11.5998 15.3828C11.5687 15.7072 11.7075 15.9069 11.7047 15.9098C11.4327 16.1818 11.5828 16.7356 11.9072 16.7356H16.6542C16.8879 16.4849 17.0225 16.1407 16.9942 15.7653C16.9531 15.2185 16.5522 14.7553 16.0196 14.6249C15.9176 14.6009 15.8184 14.5895 15.7221 14.5895C15.6399 14.5895 15.5606 14.598 15.4827 14.6122C15.3283 14.0795 14.8381 13.6914 14.2573 13.6914Z" fill="#689F38"/>
<path d="M13.0025 15.1262C13.0025 15.1262 12.9912 14.7763 13.2717 14.4023" stroke="#689F38" stroke-width="0.269169" stroke-miterlimit="10" stroke-linecap="round" stroke-linejoin="round"/>
<path d="M15.4619 14.7559C15.1318 14.7615 14.8089 15.0208 14.7593 15.3381" stroke="#689F38" stroke-width="0.269169" stroke-miterlimit="10" stroke-linecap="round" stroke-linejoin="round"/>
<path d="M15.1233 15.482C14.8329 15.3502 14.4419 15.3701 14.1416 15.5231" stroke="#689F38" stroke-width="0.269169" stroke-miterlimit="10" stroke-linecap="round" stroke-linejoin="round"/>
<path d="M0 15.8652H16.999V16.9985H0V15.8652Z" fill="#689F38"/>
<path opacity="0.2" d="M0 16.5762H16.999V17.0011H0V16.5762Z" fill="#424242"/>
<defs>
<radialGradient id="paint0_radial_219_6441" cx="0" cy="0" r="1" gradientUnits="userSpaceOnUse" gradientTransform="translate(2.93961 4.05532) scale(7.00032 7.00032)">
<stop stop-color="#8BC34A"/>
<stop offset="0.7888" stop-color="#558B2F"/>
<stop offset="1" stop-color="#558B2F"/>
</radialGradient>
<radialGradient id="paint1_radial_219_6441" cx="0" cy="0" r="1" gradientUnits="userSpaceOnUse" gradientTransform="translate(1.6129 13.4135) rotate(90) scale(2.88444 3.4596)">
<stop stop-color="#9CCC65"/>
<stop offset="0.3004" stop-color="#96C660"/>
<stop offset="0.3827" stop-color="#93C35E"/>
<stop offset="0.4872" stop-color="#86B854"/>
<stop offset="0.8182" stop-color="#639739"/>
<stop offset="0.9952" stop-color="#558B2F"/>
</radialGradient>
<radialGradient id="paint2_radial_219_6441" cx="0" cy="0" r="1" gradientUnits="userSpaceOnUse" gradientTransform="translate(9.92027 2.59455) scale(15.1461 15.1461)">
<stop stop-color="#FFD54F"/>
<stop offset="0.179" stop-color="#FFD34B"/>
<stop offset="0.3526" stop-color="#FFCE3F"/>
<stop offset="0.524" stop-color="#FFC62C"/>
<stop offset="0.693" stop-color="#FFBA11"/>
<stop offset="0.7785" stop-color="#FFB300"/>
<stop offset="1" stop-color="#FFB300"/>
</radialGradient>
<radialGradient id="paint3_radial_219_6441" cx="0" cy="0" r="1" gradientUnits="userSpaceOnUse" gradientTransform="translate(7.72271 8.65441) scale(6.19429)">
<stop stop-color="#D32F2F"/>
<stop offset="0.4374" stop-color="#CA2929"/>
<stop offset="0.9957" stop-color="#B71C1C"/>
</radialGradient>
<radialGradient id="paint4_radial_219_6441" cx="0" cy="0" r="1" gradientUnits="userSpaceOnUse" gradientTransform="translate(7.7815 8.98226) scale(5.56037)">
<stop stop-color="#EF5350"/>
<stop offset="1" stop-color="#E53935"/>
</radialGradient>
<radialGradient id="paint5_radial_219_6441" cx="0" cy="0" r="1" gradientUnits="userSpaceOnUse" gradientTransform="translate(7.73667 9.47902) scale(4.90973)">
<stop stop-color="#E53935"/>
<stop offset="0.4072" stop-color="#DC3431"/>
<stop offset="1" stop-color="#C62828"/>
</radialGradient>
<radialGradient id="paint6_radial_219_6441" cx="0" cy="0" r="1" gradientUnits="userSpaceOnUse" gradientTransform="translate(7.73667 9.47837) scale(4.90973 4.90973)">
<stop stop-color="#E53935"/>
<stop offset="0.4072" stop-color="#DC3431"/>
<stop offset="1" stop-color="#C62828"/>
</radialGradient>
<linearGradient id="paint7_linear_219_6441" x1="7.79929" y1="14.5449" x2="7.79929" y2="15.3156" gradientUnits="userSpaceOnUse">
<stop offset="0.0042918" stop-color="#BDBDBD"/>
<stop offset="0.2153" stop-color="#B5B5B5"/>
<stop offset="0.5502" stop-color="#9E9E9E"/>
<stop offset="0.9652" stop-color="#787878"/>
<stop offset="1" stop-color="#757575"/>
</linearGradient>
<radialGradient id="paint8_radial_219_6441" cx="0" cy="0" r="1" gradientUnits="userSpaceOnUse" gradientTransform="translate(9.86152 2.0477) scale(7.98017)">
<stop stop-color="#F44336"/>
<stop offset="0.34" stop-color="#EE3F35"/>
<stop offset="0.8027" stop-color="#DC3531"/>
<stop offset="0.9957" stop-color="#D32F2F"/>
</radialGradient>
<linearGradient id="paint9_linear_219_6441" x1="7.79982" y1="15.0939" x2="7.79982" y2="15.8588" gradientUnits="userSpaceOnUse">
<stop offset="0.0042918" stop-color="#BDBDBD"/>
<stop offset="0.3969" stop-color="#BABABA"/>
<stop offset="0.7025" stop-color="#B0B0B0"/>
<stop offset="0.9786" stop-color="#A0A0A0"/>
<stop offset="1" stop-color="#9E9E9E"/>
</linearGradient>
<radialGradient id="paint10_radial_219_6441" cx="0" cy="0" r="1" gradientUnits="userSpaceOnUse" gradientTransform="translate(14.1832 13.9911) rotate(90) scale(3.53267 4.1039)">
<stop stop-color="#9CCC65"/>
<stop offset="0.2538" stop-color="#96C760"/>
<stop offset="0.5994" stop-color="#84B851"/>
<stop offset="0.9952" stop-color="#689F38"/>
</radialGradient>
</defs>
</svg>
