<svg width="41" height="40" viewBox="0 0 41 40" fill="none" xmlns="http://www.w3.org/2000/svg">
<path d="M17.1667 25.834C16.4834 25.834 15.9167 26.4007 15.9167 27.084V29.584C15.9167 30.2673 16.4834 30.834 17.1667 30.834C17.85 30.834 18.4167 30.2673 18.4167 29.584V27.084C18.4167 26.4007 17.85 25.834 17.1667 25.834Z" fill="white"/>
<path d="M37.1666 35.4146H35.5V16.6313C35.5 15.5979 35.0333 14.6313 34.2166 13.9979L22.55 4.93125C21.35 3.98125 19.65 3.98125 18.45 4.93125L6.78331 13.9979C5.96665 14.6313 5.49998 15.5979 5.49998 16.6146L5.41665 35.4146H3.83331C3.50179 35.4146 3.18385 35.5463 2.94943 35.7807C2.71501 36.0151 2.58331 36.3331 2.58331 36.6646C2.58331 36.9961 2.71501 37.314 2.94943 37.5485C3.18385 37.7829 3.50179 37.9146 3.83331 37.9146H37.1666C37.4982 37.9146 37.8161 37.7829 38.0505 37.5485C38.285 37.314 38.4166 36.9961 38.4166 36.6646C38.4166 36.3331 38.285 36.0151 38.0505 35.7807C37.8161 35.5463 37.4982 35.4146 37.1666 35.4146ZM18 11.2479H23C23.6833 11.2479 24.25 11.8146 24.25 12.4979C24.25 13.1812 23.6833 13.7479 23 13.7479H18C17.3166 13.7479 16.75 13.1812 16.75 12.4979C16.75 11.8146 17.3166 11.2479 18 11.2479ZM28.8333 35.4146H12.1666V20.8313C12.1666 19.4479 13.2833 18.3313 14.6666 18.3313H26.3333C27.7166 18.3313 28.8333 19.4479 28.8333 20.8313V35.4146Z" fill="white"/>
</svg>
