<svg width="47" height="46" viewBox="0 0 47 46" fill="none" xmlns="http://www.w3.org/2000/svg">
<path d="M42.7721 10.8581C42.7808 10.7878 42.804 10.7199 42.8402 10.6582C42.8765 10.5966 42.9252 10.5424 42.9835 10.4987C43.0418 10.4551 43.1085 10.423 43.1799 10.4041C43.2512 10.3853 43.3258 10.3801 43.3992 10.3889C44.9339 10.5782 42.57 12.3955 42.7721 10.8581Z" stroke="white" stroke-width="0.357541" stroke-miterlimit="10"/>
<path d="M32.6808 9.36589C32.69 9.29547 32.7136 9.22747 32.7503 9.16578C32.787 9.10409 32.8361 9.04991 32.8947 9.00634C32.9533 8.96278 33.0203 8.93068 33.0919 8.91188C33.1636 8.89308 33.2383 8.88795 33.312 8.89678C34.8467 9.07811 32.4828 10.9033 32.6808 9.36589Z" fill="white"/>
<path d="M28.8026 1.99836C28.8122 1.92664 28.8367 1.85747 28.8746 1.79489C28.9125 1.73231 28.9631 1.67758 29.0234 1.6339C29.0837 1.59022 29.1526 1.55847 29.2259 1.5405C29.2992 1.52253 29.3755 1.51871 29.4503 1.52925C30.9685 1.71059 28.6252 3.53579 28.8026 1.99836Z" stroke="white" stroke-width="0.357541" stroke-miterlimit="10"/>
<path d="M25.9307 45.4679C24.1939 45.5704 22.453 45.6492 20.7079 45.6611C20.0684 45.6611 19.429 45.6611 18.7937 45.6611C16.5742 45.5783 14.334 45.531 12.1021 45.3772C11.112 45.3063 10.1178 45.2392 9.13592 45.121C8.50472 45.0461 7.87352 44.9554 7.24645 44.8293C6.9326 44.7608 6.62276 44.6766 6.31822 44.577C6.01349 44.4711 5.71939 44.3392 5.43949 44.1828C5.09295 43.9817 5.18371 43.9541 5.52612 44.0093C5.86854 44.0645 6.47498 44.0921 7.15569 44.2537C8.39775 44.4996 9.65638 44.6616 10.9222 44.7386C12.197 44.8332 13.4842 44.8923 14.7754 44.9515C16.3225 45.0224 17.9479 44.987 19.528 45.0145C21.2607 45.0145 23.0016 44.9554 24.7426 44.8529C25.8152 44.7859 26.8837 44.7149 27.9522 44.6243C29.5735 44.4942 31.2031 44.3523 32.8079 44.1749C34.0456 44.0369 35.2832 43.8516 36.5208 43.686L37.3459 43.5757C38.3608 43.4535 38.6908 43.4771 38.9342 43.6624C38.9907 43.6995 39.0432 43.7417 39.091 43.7885C39.2065 43.9423 38.8064 44.1118 38.0679 44.234C35.8773 44.5927 33.5299 44.8569 31.2113 45.0816C29.4704 45.2511 27.7171 45.389 25.9679 45.5113L25.9307 45.4679Z" fill="white"/>
<path d="M26.5619 32.1683C25.6541 31.5642 24.6681 31.0753 23.6287 30.7137C22.6228 30.4039 21.535 30.4415 20.5552 30.8201C19.811 31.1062 19.1047 31.4754 18.4512 31.9199C17.853 32.3142 17.2754 32.7084 16.6937 33.1578C16.112 33.6072 15.5138 34.0093 14.9528 34.4508C13.8224 35.3338 12.7415 36.2839 11.6895 37.2615C10.753 38.1327 9.83719 39.0394 8.94609 39.9382C7.81158 41.1209 6.72658 42.3035 5.60445 43.4861C5.26204 43.8528 5.1919 43.7108 5.31154 43.2733C5.55748 42.5842 5.93829 41.946 6.43367 41.3929C7.55993 40.155 8.76044 38.9763 9.96508 37.845C11.1697 36.7136 12.4156 35.5428 13.7481 34.4823C14.5444 33.8437 15.3983 33.2169 16.2234 32.594C17.0494 31.9392 17.922 31.3398 18.8349 30.8004C19.3603 30.5104 19.9127 30.2676 20.4851 30.075C21.0711 29.8888 21.6828 29.7865 22.3003 29.7715C22.9197 29.7773 23.5335 29.884 24.1155 30.0869C24.6703 30.2877 25.2093 30.5261 25.7285 30.8004C26.9872 31.4752 28.1729 32.2675 29.2682 33.1657C30.9184 34.5099 32.4613 35.9685 34.0042 37.3837C35.2048 38.4875 36.4011 39.544 37.6058 40.6123L38.3979 41.3101C39.3756 42.1971 39.6355 42.4927 39.7139 42.8554C39.7363 42.9313 39.7501 43.0093 39.7552 43.088C39.7552 43.289 39.2271 43.0367 38.468 42.4218C36.2238 40.5847 34.0414 38.4796 31.7971 36.4416C30.0974 34.8962 28.439 33.3706 26.5619 32.1841V32.1683Z" fill="white"/>
<path d="M3.83513 36.1228C3.83513 35.153 3.83513 34.1911 3.85576 33.2174C3.85576 32.8626 3.85576 32.5079 3.88051 32.157C3.95889 30.9073 4.13216 29.6774 4.25593 28.4514C4.30956 27.9035 4.33844 27.3555 4.35494 26.8154C4.35494 26.1177 4.35494 25.4239 4.4292 24.73C4.45395 24.5132 4.59834 24.5369 4.75099 24.73C4.96571 24.9957 5.09088 25.3174 5.1099 25.6525C5.13579 27.0956 5.03505 28.5382 4.80874 29.9652C4.6891 30.8167 4.66848 31.7076 4.62722 32.5788C4.58597 33.5367 4.58597 34.5026 4.59009 35.4684C4.59009 36.0636 4.59009 36.651 4.62722 37.2542C4.66023 38.153 4.70561 39.0557 4.80874 39.9427C4.88713 40.6326 5.02327 41.3027 5.15941 41.9729C5.18829 42.1187 5.22129 42.2646 5.25429 42.4144C5.35743 42.9663 5.3368 43.1516 5.15941 43.3053C5.12508 43.3436 5.08633 43.3779 5.0439 43.4078C4.91188 43.4867 4.73036 43.2817 4.61072 42.8756C4.27468 41.6226 4.06062 40.3425 3.97127 39.0518C3.88876 38.0781 3.85163 37.0807 3.82275 36.1228H3.83513Z" fill="white"/>
<path d="M39.8131 35.764C39.7925 34.8652 39.7512 33.9585 39.6976 33.0519C39.6976 32.7247 39.6275 32.3935 39.6069 32.0624C39.5326 30.8797 39.5078 29.6971 39.5285 28.5145C39.5285 27.9902 39.5285 27.4659 39.5285 26.9376C39.5285 26.6065 39.5285 26.2714 39.5285 25.9403C39.5285 25.6091 39.5904 25.278 39.6481 24.9468C39.6852 24.7419 39.809 24.7734 39.9451 24.9468C40.1339 25.2096 40.2516 25.513 40.2876 25.8299C40.3412 27.1781 40.3453 28.5105 40.2876 29.8627C40.294 30.6889 40.3491 31.5141 40.4526 32.3344C40.5268 33.249 40.5873 34.1688 40.6341 35.0939C40.663 35.6576 40.6754 36.2253 40.6877 36.7929C40.6877 37.6523 40.6877 38.5196 40.6465 39.375C40.6176 40.0412 40.6176 40.6996 40.5392 41.3697C40.5392 41.5156 40.5021 41.6615 40.4773 41.8113C40.4534 41.9261 40.4217 42.0393 40.3824 42.1503C40.3483 42.2276 40.3039 42.3005 40.2504 42.3671C40.1799 42.4629 40.0736 42.5293 39.9534 42.5524C39.9038 42.5681 39.8527 42.5787 39.8007 42.5839C39.644 42.5839 39.5697 42.3356 39.5821 41.9532C39.6811 40.8376 39.776 39.6589 39.7966 38.4526C39.7966 37.5538 39.7966 36.6471 39.7636 35.7404L39.8131 35.764Z" fill="white"/>
<path d="M33.4229 25.9805C34.248 25.4956 35.0236 25.0068 35.8033 24.4943C36.0921 24.3051 36.3561 24.1001 36.6284 23.9069C37.1235 23.5719 37.6144 23.2328 38.0765 22.8702C38.3075 22.6888 38.5303 22.5035 38.7324 22.3104C38.8195 22.2261 38.9008 22.1366 38.9758 22.0423C39.013 21.9911 39.0542 21.9162 39.013 21.8531L38.9552 21.7782L38.8479 21.6126C38.7613 21.5101 38.687 21.4037 38.6045 21.3012L38.1136 20.698L36.8264 19.1212C36.5583 18.7979 37.239 18.9241 37.8042 19.4681C38.3199 19.9412 38.8232 20.426 39.3059 20.9346C39.3636 20.9976 39.4255 21.0607 39.4791 21.1317L39.6854 21.3879C39.7913 21.5077 39.8586 21.6542 39.8793 21.8097C39.884 21.9743 39.8442 22.1372 39.7638 22.2828C39.7308 22.3537 39.6813 22.4208 39.6442 22.4878C39.607 22.5548 39.574 22.5745 39.541 22.6179C39.508 22.6612 39.4049 22.7716 39.3389 22.8386C39.209 22.9771 39.0713 23.1088 38.9263 23.2328C38.2332 23.765 37.5484 24.3169 36.8306 24.8097C36.0509 25.33 35.2258 25.8425 34.4378 26.3432L32.9402 27.2656C32.1894 27.7308 31.4179 28.1802 30.6795 28.6533C30.1019 29.0199 29.5656 29.418 29.0293 29.8004C28.9097 29.8871 28.7941 29.9739 28.6663 30.0566C28.2042 30.3602 28.0103 30.3917 27.7834 30.2616C27.7307 30.2373 27.6797 30.2096 27.6308 30.1789C27.4987 30.0724 27.6019 29.8162 27.9195 29.5599C28.9095 28.8054 29.9424 28.104 31.0137 27.4588L33.4106 25.949L33.4229 25.9805Z" fill="white"/>
<path d="M10.3743 27.3684C9.44741 26.8428 8.53018 26.2896 7.62257 25.7088C7.29254 25.4999 6.95012 25.3146 6.62421 25.0859C6.03865 24.6966 5.4868 24.2629 4.97402 23.789C4.90801 23.722 4.842 23.6549 4.78012 23.58C4.69279 23.4825 4.618 23.3753 4.55734 23.2607C4.49757 23.1487 4.46915 23.0237 4.47483 22.8981C4.49624 22.7739 4.55337 22.6579 4.63985 22.563C4.77668 22.4104 4.9227 22.2656 5.07715 22.1293L5.46082 21.7903L6.82223 20.6077C7.39155 20.0952 7.97324 19.5906 8.5178 19.0703C8.68282 18.9126 8.74883 18.9875 8.69932 19.2082C8.59571 19.5441 8.41535 19.8538 8.17126 20.1149C7.65145 20.7102 7.11514 21.2976 6.57058 21.8416C6.2983 22.1215 5.99714 22.3738 5.72073 22.63C5.37006 22.9848 5.34119 22.8981 5.36594 23.0242C5.37126 23.0452 5.3827 23.0643 5.39894 23.0794C5.42968 23.1192 5.46274 23.1574 5.49795 23.1937C5.57353 23.2738 5.6534 23.3501 5.73723 23.4224C5.90638 23.5682 6.09615 23.7101 6.28592 23.8481C6.67371 24.1241 7.08214 24.3842 7.48643 24.6365C8.37754 25.2081 9.28927 25.76 10.2134 26.2962C10.7827 26.6273 11.3561 26.9519 11.9337 27.2699C12.8083 27.7469 13.687 28.2317 14.5781 28.6693C15.2712 29.0083 15.9767 29.2961 16.678 29.5957C16.8348 29.6627 16.9874 29.7219 17.1401 29.7928C17.7176 30.0491 17.862 30.187 17.8785 30.459C17.8846 30.5154 17.8846 30.5722 17.8785 30.6286C17.8785 30.7981 17.5526 30.8335 17.1112 30.6798C15.7711 30.1811 14.4685 29.595 13.2126 28.9256C12.2514 28.4367 11.2984 27.9243 10.3619 27.3881L10.3743 27.3684Z" fill="white"/>
<path d="M11.9912 13.7577C13.9054 13.5093 15.8361 13.3359 17.7297 13.19C18.4269 13.1348 19.1241 13.0599 19.8213 13.0166C22.2966 12.8549 24.7471 12.7801 27.2142 12.7406C28.3074 12.7406 29.4089 12.6973 30.5145 12.6973C31.2159 12.6973 31.9172 12.6973 32.6227 12.7525C32.9733 12.78 33.324 12.8155 33.6788 12.8747C34.0421 12.9255 34.3971 13.0209 34.7349 13.1585C34.9618 13.261 35.0361 13.4029 34.9866 13.4226C34.9371 13.4423 34.8092 13.4226 34.6276 13.4226C34.2605 13.4226 33.6045 13.4936 32.8207 13.4817C30.0319 13.4068 27.1935 13.4817 24.3428 13.5566C22.6308 13.6 20.8609 13.7498 19.1159 13.8838C17.2016 14.0258 15.2833 14.1874 13.3773 14.4121C12.2106 14.5338 11.0512 14.7127 9.90366 14.9482C9.7964 14.9758 9.68913 14.9995 9.59012 15.031L9.44161 15.0744L9.32197 15.1138C9.26555 15.1302 9.21443 15.16 9.17345 15.2005C9.15457 15.2551 9.14619 15.3126 9.1487 15.37C9.1487 15.7642 9.1487 16.2136 9.1487 16.6354C9.17345 17.4909 9.20645 18.3503 9.24358 19.1978C9.30547 20.5224 9.42098 21.8154 9.49524 23.14C9.49524 23.4277 9.52824 23.7116 9.54474 24.0033C9.58187 25.0834 9.51999 25.4382 9.28071 25.6669C9.23349 25.7215 9.17946 25.7705 9.11982 25.8127C8.9383 25.8955 8.82691 25.4737 8.76915 24.6931C8.59176 22.3712 8.40199 19.9114 8.30297 17.4318L8.26172 16.0402V15.2754C8.26783 15.1659 8.28722 15.0574 8.31948 14.9522C8.34251 14.8469 8.39367 14.7491 8.46799 14.6683C8.62526 14.5062 8.82447 14.3865 9.04556 14.3214C9.53682 14.1698 10.0386 14.0512 10.5472 13.9666C11.034 13.8799 11.5167 13.8089 11.9994 13.738L11.9912 13.7577Z" fill="white"/>
<path d="M35.5641 17.8534L35.5889 19.2489C35.5889 19.4184 35.6219 19.584 35.626 19.7535C35.626 20.3566 35.626 20.9361 35.6838 21.555C35.7008 21.8192 35.7325 22.0824 35.7787 22.3434C35.8625 22.6748 35.8931 23.0164 35.8694 23.3566C35.8694 23.4669 35.7085 23.4709 35.5435 23.4039C35.4503 23.3684 35.3657 23.3151 35.2948 23.2473C35.2238 23.1796 35.1681 23.0987 35.131 23.0097C34.9925 22.3224 34.9221 21.6242 34.9206 20.9243C34.9206 20.5025 34.8339 20.0728 34.7927 19.647C34.7514 19.2213 34.7225 18.7049 34.706 18.2318L34.6772 17.3567C34.6772 16.9151 34.6483 16.4736 34.6318 16.036C34.6318 15.697 34.541 15.3619 34.541 15.0229C34.541 14.952 34.541 14.8771 34.541 14.8022C34.541 14.5223 34.6153 14.4355 34.7885 14.3804C34.8258 14.365 34.8644 14.3531 34.9041 14.3449C35.0319 14.3212 35.1392 14.4355 35.2011 14.6326C35.2957 14.9273 35.3701 15.2275 35.4239 15.5315C35.4693 15.8389 35.5023 16.1464 35.527 16.4579L35.5889 17.8534H35.5641Z" fill="white"/>
<path d="M23.13 7.98052C22.72 8.04393 22.3273 8.18463 21.9748 8.39444C21.5479 8.61587 21.1346 8.86069 20.7372 9.12768C20.4402 9.32084 20.1679 9.54554 19.875 9.74659C18.8436 10.4588 17.8232 11.2012 16.8139 11.9739C16.3683 12.3169 15.9351 12.6756 15.502 13.0304C15.2214 13.2511 14.9409 13.4798 14.6439 13.6927C14.3402 13.9221 14.0023 14.1068 13.6414 14.2406C13.5011 14.28 13.4145 14.2406 13.4186 14.1933C13.4367 14.1088 13.4687 14.0277 13.5135 13.9528C13.6467 13.6669 13.8406 13.4105 14.0828 13.1999C15.1513 12.2617 16.2941 11.3431 17.4987 10.4798C18.2248 9.97129 18.9096 9.35632 19.6563 8.82807C20.4784 8.2142 21.3745 7.69672 22.3255 7.2867C22.4954 7.2245 22.6707 7.177 22.8494 7.14479C22.9461 7.12859 23.0442 7.12068 23.1424 7.12113C23.2439 7.1203 23.3452 7.13223 23.4435 7.15661C23.7757 7.2455 24.0906 7.38529 24.3759 7.57054C25.1698 8.0884 25.9127 8.67425 26.5954 9.32084C27.1317 9.79784 27.6763 10.2512 28.1919 10.7439C28.3074 10.8504 28.423 10.9489 28.5302 11.0672C28.918 11.5048 28.984 11.6901 28.8768 11.9266C28.8565 11.9829 28.8302 12.037 28.7984 12.0882C28.687 12.242 28.4188 12.1552 28.0971 11.8832C27.1399 11.0948 26.2365 10.1566 25.2546 9.32478C24.8999 9.01917 24.5281 8.73228 24.1407 8.4654C23.9588 8.34306 23.7687 8.23244 23.5714 8.13426C23.4873 8.09562 23.4004 8.06269 23.3115 8.03571L23.2001 8.00417C23.1797 8.0081 23.1586 8.0081 23.1382 8.00417L23.13 7.98052Z" fill="white"/>
<path d="M24.7136 18.7658L22.3497 18.8565L21.4874 18.9038C20.4726 18.9432 19.4536 18.9392 18.4387 18.955L17.0732 18.9708C16.4871 19.0146 15.8975 18.9842 15.3199 18.8801C15.1301 18.8249 15.2002 18.7618 15.3652 18.7106C15.6048 18.6323 15.8549 18.5872 16.1078 18.5766C17.2588 18.5332 18.4263 18.4268 19.6021 18.3992C20.3076 18.3755 21.0378 18.3046 21.7556 18.2573L24.136 18.1193L25.6005 18.0404C26.339 17.9931 27.0816 17.9655 27.8159 17.9143C28.3894 17.8749 28.9422 17.7881 29.5115 17.7369C29.6353 17.7369 29.759 17.7054 29.8828 17.6975C30.3572 17.6778 30.5057 17.7251 30.6048 17.9222C30.6383 17.9674 30.666 18.0164 30.6873 18.068C30.7326 18.2218 30.5429 18.3519 30.2087 18.3992C29.2186 18.549 28.146 18.6239 27.1022 18.6869C26.3101 18.7343 25.5139 18.754 24.7218 18.7934L24.7136 18.7658Z" fill="white"/>
<path d="M24.0086 21.8312H23.1092C22.9979 21.8312 22.8906 21.8509 22.7792 21.8312C22.3914 21.8312 21.9995 21.7918 21.6117 21.772C21.4384 21.772 21.2693 21.772 21.096 21.772C20.8772 21.7964 20.6558 21.7871 20.4401 21.7445C20.3039 21.709 20.4937 21.2635 20.7371 21.2517C21.1745 21.2314 21.6129 21.2406 22.049 21.2793C22.3246 21.2897 22.6006 21.2778 22.8741 21.2438L23.7611 21.2201H24.318C24.5985 21.2201 24.8832 21.2201 25.1431 21.1926C25.403 21.165 25.5557 21.1216 25.7949 21.0901C25.8444 21.0901 25.8898 21.0703 25.9393 21.0664C26.1167 21.0664 26.1745 21.1019 26.2075 21.2872C26.2075 21.3266 26.2075 21.3699 26.2075 21.4094C26.2168 21.4721 26.2029 21.5359 26.1683 21.5899C26.1337 21.6438 26.0804 21.6846 26.0177 21.705C25.6395 21.8005 25.2496 21.847 24.8584 21.843L23.9673 21.8627L24.0086 21.8312Z" fill="white"/>
<path d="M26.4668 45.7764C25.0435 45.8592 23.6202 45.9262 22.1928 45.9696C21.6689 45.9696 21.1491 46.0129 20.6293 46.0169C18.7852 46.0169 16.9576 45.9341 15.13 45.8631L12.696 45.7764C11.6555 45.7812 10.6168 45.6927 9.59361 45.5123C9.27595 45.4453 9.32545 45.3743 9.59361 45.2876C9.73387 45.2403 9.9319 45.193 10.167 45.1378C10.2935 45.1083 10.4216 45.086 10.5507 45.0708C10.6869 45.0708 10.8313 45.0708 10.9633 45.0708L17.2835 45.2797C18.5583 45.3349 19.8702 45.2797 21.1614 45.2245C22.5847 45.1654 24.0122 45.1062 25.4396 45.0156C26.3142 44.9564 27.1929 44.8973 28.0716 44.8264C29.3959 44.7199 30.7326 44.6095 32.0445 44.4321C33.0635 44.3099 34.0577 44.1325 35.0602 43.967C35.2788 43.9315 35.4727 43.8881 35.7161 43.8566C36.5412 43.7344 36.8135 43.758 37.028 43.9788C37.0802 44.0224 37.1272 44.0713 37.1683 44.1247C37.2756 44.302 36.9579 44.5189 36.3432 44.6292C34.4895 44.9974 32.6146 45.2607 30.7284 45.4177C29.301 45.5596 27.8654 45.666 26.4297 45.7685L26.4668 45.7764Z" fill="white"/>
<path d="M11.9252 27.943L10.1182 26.8708C9.89959 26.7368 9.66856 26.6264 9.44991 26.4766C8.6867 25.9956 7.93173 25.5029 7.20152 24.9746C6.87149 24.7539 6.55382 24.5016 6.23204 24.269C6.03401 24.1074 5.81949 23.9654 5.63384 23.7841L5.34918 23.5239C5.25842 23.4293 5.17591 23.3268 5.0934 23.2243C5.01089 23.1218 5.0934 23.0548 5.25842 23.0824C5.49014 23.1254 5.71042 23.2125 5.90612 23.3386C6.31867 23.6028 6.78485 23.8393 7.2304 24.0876C7.67595 24.336 8.08438 24.6435 8.50517 24.9431C9.02545 25.307 9.56674 25.6426 10.1265 25.9483C10.7288 26.3057 11.3325 26.6592 11.9376 27.0088L13.0638 27.6474C13.6414 27.9588 14.2107 28.2821 14.7965 28.5659C15.2545 28.7827 15.7248 28.9601 16.1909 29.1414L16.4962 29.2637C16.8758 29.4253 16.9583 29.5475 16.9335 29.7801C16.9378 29.8312 16.9378 29.8827 16.9335 29.9338C16.8964 30.0915 16.6695 30.1585 16.3766 30.0718C15.4746 29.7825 14.6031 29.413 13.7734 28.968C13.1422 28.6487 12.5358 28.3018 11.9046 27.9628L11.9252 27.943Z" fill="white"/>
<path d="M32.5901 26.153C33.1677 25.81 33.7453 25.4592 34.3146 25.1004C34.5208 24.9664 34.7271 24.8166 34.921 24.7062C35.6471 24.241 36.3732 23.7719 37.0786 23.2792C37.3798 23.0505 37.6892 22.8258 37.9697 22.5814C38.1494 22.4275 38.3202 22.2643 38.4813 22.0926C38.6271 21.9582 38.7362 21.7917 38.799 21.6077C38.799 21.5643 38.8567 21.4382 39.0176 21.5643C39.0568 21.6147 39.085 21.672 39.1006 21.733C39.1162 21.7939 39.1188 21.8572 39.1084 21.9191C39.0909 22.0658 39.0402 22.207 38.9599 22.3331C38.6748 22.7716 38.34 23.1788 37.9615 23.5472C37.5775 23.8835 37.1633 24.1869 36.7239 24.4539C36.1958 24.7693 35.7049 25.1635 35.185 25.5065C34.6652 25.8494 34.034 26.2476 33.4523 26.6063L32.3715 27.2489C31.831 27.584 31.2782 27.9033 30.7502 28.2502C30.3376 28.5183 29.9663 28.8218 29.5744 29.1096C29.4878 29.1726 29.4053 29.2397 29.3145 29.2988C28.9845 29.5235 28.8359 29.5274 28.642 29.3895C28.5973 29.3621 28.5545 29.3318 28.5142 29.2988C28.3945 29.1845 28.444 28.9677 28.6627 28.7745C29.3473 28.1952 30.0784 27.668 30.8492 27.1976L32.5777 26.1214L32.5901 26.153Z" fill="white"/>
<path d="M13.1793 35.1005L12.0819 35.9757L11.0093 36.8863L10.2585 37.5801C9.36736 38.3686 8.47214 39.2003 7.63054 40.0597C7.25925 40.4539 6.8962 40.8482 6.55379 41.2424C6.1296 41.772 5.67655 42.2799 5.19651 42.764C5.04386 42.9099 4.96135 42.8153 4.96548 42.5985C4.9872 42.2774 5.103 41.9687 5.29964 41.7075C6.19606 40.6278 7.17069 39.6096 8.21636 38.6603C8.84343 38.0926 9.454 37.454 10.1017 36.8824C10.4524 36.5591 10.8154 36.2477 11.1826 35.9441C11.5497 35.6406 11.9169 35.3292 12.2882 35.0178C12.742 34.6235 13.2206 34.2924 13.6867 33.9337C14.4004 33.4015 15.1389 32.889 15.8774 32.3962C16.4384 32.002 17.0078 31.6275 17.5771 31.2451L17.9649 31.0126C18.4599 30.7366 18.6414 30.6854 18.8312 30.78C18.8749 30.7962 18.9165 30.8174 18.955 30.843C19.0664 30.9298 18.9178 31.1348 18.5837 31.3595C17.5729 32.0099 16.5209 32.7116 15.4731 33.4212L14.3221 34.2412L13.1917 35.1005H13.1793Z" fill="white"/>
<path d="M8.23689 23.1921C8.23689 22.8925 8.23689 22.5929 8.23689 22.2972C8.23689 22.1869 8.23689 22.0804 8.23689 21.97C8.23689 21.5758 8.27402 21.2092 8.27814 20.8268C8.27814 20.6573 8.27814 20.4878 8.25339 20.3222C8.21763 20.1099 8.20656 19.8944 8.22038 19.6797C8.22038 19.5417 8.63293 19.6797 8.65769 19.928C8.73195 20.3658 8.76097 20.8094 8.74432 21.2526C8.74432 21.5206 8.77732 21.7966 8.78557 22.0647L8.8227 22.9477C8.8227 23.129 8.8227 23.3143 8.8227 23.4956C8.8227 23.7716 8.85158 24.0515 8.88871 24.3235C8.92584 24.5324 8.98772 24.7177 9.03723 24.9385C9.03723 24.9858 9.05786 25.0291 9.06611 25.0764C9.06611 25.2459 9.04548 25.309 8.90934 25.3642C8.88074 25.3806 8.85029 25.3938 8.81858 25.4036C8.76178 25.4164 8.70203 25.4086 8.65094 25.3816C8.59986 25.3547 8.56109 25.3105 8.54217 25.2578C8.34414 24.8923 8.24086 24.4867 8.24101 24.0751C8.21626 23.7716 8.21626 23.4681 8.20801 23.1685L8.23689 23.1921Z" fill="white"/>
</svg>
