<svg width="46" height="46" viewBox="0 0 46 46" fill="none" xmlns="http://www.w3.org/2000/svg">
<path d="M14.7348 12.5991L15.4032 12.3295C15.6225 12.2361 15.8381 12.1247 16.0537 12.0241C16.4957 11.8264 16.9126 11.5856 17.3331 11.3484C17.6457 11.1831 17.9225 10.9639 18.2243 10.777C19.2766 10.1063 20.2729 9.35153 21.2036 8.52015C21.6132 8.14281 22.0193 7.75828 22.3895 7.35218C22.6375 7.09703 22.8675 6.8275 23.1082 6.56156C23.349 6.29562 23.6006 6.04765 23.8593 5.79968C24.021 5.64515 24.0678 5.72422 24.0282 5.93265C23.953 6.25734 23.8097 6.56235 23.6078 6.8275C22.6781 7.98295 21.61 9.01974 20.4273 9.91453C20.2512 10.0475 20.0679 10.1877 19.8954 10.3278L19.3492 10.7447C18.9898 11.0286 18.6089 11.2837 18.2315 11.5353C17.8542 11.7869 17.369 12.0492 16.9414 12.3044C16.5137 12.5595 16.0501 12.7644 15.5937 12.9692C15.0259 13.21 14.4581 13.458 13.8723 13.6448C13.6495 13.7167 13.4339 13.7994 13.2075 13.8677L12.5318 14.0473C12.3054 14.1048 12.0862 14.1767 11.8562 14.2234L11.177 14.3744L10.6523 14.493C10.4762 14.5325 10.2929 14.5541 10.124 14.5864C9.76464 14.6475 9.40527 14.7122 9.07105 14.7625C8.91293 14.7625 8.76199 14.7948 8.60027 14.802C8.01449 14.838 7.82402 14.802 7.69824 14.6008C7.66618 14.562 7.63847 14.5198 7.61558 14.475C7.56168 14.3348 7.79527 14.2055 8.20855 14.1156L9.13574 14.015C9.44839 13.9539 9.75746 13.9 10.0737 13.8569C10.392 13.8059 10.7074 13.7387 11.0189 13.6556C11.3351 13.5873 11.655 13.5442 11.9676 13.458C12.91 13.2315 13.8348 12.9372 14.7348 12.5775V12.5991Z" fill="#FAFAFA"/>
<path d="M16.1183 36.8385C15.5271 36.067 14.996 35.2512 14.5298 34.3984C14.0554 33.5682 13.6242 32.7165 13.2109 31.8612C12.909 31.2359 12.5964 30.6142 12.3161 29.9853L9.44106 23.2901C9.017 22.2982 8.57856 21.3063 8.16888 20.3145C7.90653 19.6784 7.62622 19.0459 7.38185 18.3954C7.25966 18.072 7.14466 17.7485 7.02247 17.4215C6.90028 17.0945 6.8356 16.7531 6.75294 16.4188C6.65591 15.9984 6.7781 16.0199 7.03325 16.3146C7.16263 16.462 7.32794 16.674 7.51481 16.9363C7.7085 17.237 7.8722 17.556 8.00356 17.8887C8.52106 19.1824 9.08169 20.4618 9.62075 21.7484L11.2415 25.644C11.8848 27.2109 12.6215 28.8101 13.3439 30.3698C14.1189 32.0917 15.0048 33.7615 15.9961 35.3687C16.613 36.3283 17.3854 37.1785 18.2817 37.8843C19.6555 38.982 21.1654 39.8976 22.7739 40.6084C24.0011 41.1475 25.2719 41.5815 26.5725 41.9057L27.4206 42.1142C28.4987 42.3657 28.8114 42.4735 29.0234 42.7035C29.0701 42.7538 29.1348 42.8042 29.1636 42.8437C29.1923 42.8832 29.1133 42.9623 28.9048 42.991C28.5879 43.0384 28.2658 43.0384 27.9489 42.991C26.6948 42.8309 25.4643 42.522 24.2833 42.071C23.0634 41.6268 21.8809 41.086 20.747 40.4538C19.0104 39.5239 17.4421 38.3091 16.1075 36.8601L16.1183 36.8385Z" fill="white"/>
<path d="M38.3924 26.7256C38.2702 28.2134 38.1696 29.7013 38.1013 31.1927C38.1013 31.4658 38.1013 31.7245 38.0618 32.03C38.0345 32.3242 37.9804 32.6153 37.9 32.8997C37.3286 34.8583 36.1894 36.4934 34.9891 38.0064C34.4536 38.6856 33.8894 39.3433 33.3108 39.9722C32.5751 40.7983 31.7439 41.5342 30.8347 42.1644C30.5436 42.3513 30.4969 42.2003 30.6335 41.902C30.8573 41.4677 31.1525 41.0741 31.5068 40.7377C33.0731 39.2128 34.494 37.5453 35.751 35.7567C35.9307 35.48 36.1104 35.2033 36.2685 34.9122C36.3475 34.7648 36.4302 34.6211 36.5057 34.4702L36.7141 34.0173C36.8614 33.7155 36.9477 33.3956 37.0735 33.0866C37.1638 32.7775 37.2347 32.463 37.2855 32.145C37.3191 31.9721 37.336 31.7964 37.3358 31.6203L37.3574 31.0525L37.4077 29.9205C37.4484 29.1658 37.4927 28.4111 37.5407 27.6564C37.6018 26.7292 37.6772 25.7984 37.7527 24.8748C37.8749 23.4697 38.0402 22.0645 38.2091 20.6737C38.3636 19.5956 38.4714 18.5175 38.7194 17.4609C38.7626 17.2181 38.8202 16.9781 38.8919 16.7422C39.1938 15.8869 39.4489 15.6641 39.6466 15.5491C39.6918 15.5243 39.7386 15.5027 39.7868 15.4844C39.9197 15.4844 39.8407 15.8437 39.7005 16.4259C39.316 18.2444 39.0788 20.2281 38.838 22.2227C38.6727 23.7105 38.5289 25.2091 38.4211 26.7077L38.3924 26.7256Z" fill="#FAFAFA"/>
<path d="M33.4219 8.68544C33.0625 8.5381 32.6816 8.38356 32.3258 8.20747C31.97 8.03138 31.6071 7.8481 31.2692 7.66481C31.0105 7.53544 30.7589 7.39888 30.511 7.24794C29.6519 6.70865 28.8328 6.10814 28.06 5.45106C27.7006 5.17075 27.37 4.87606 27.0286 4.59575L26.3817 4.03872C26.1741 3.84186 25.9808 3.6305 25.8031 3.40622C25.5839 3.1295 26.3278 3.04685 26.8022 3.44216C27.6539 4.16091 28.5272 4.87966 29.4077 5.59841C29.674 5.81917 29.9589 6.01637 30.2594 6.18778C30.5541 6.37466 30.8667 6.54716 31.1686 6.70528C31.4705 6.86341 31.8442 7.06466 32.1821 7.23716C32.5199 7.40966 32.8756 7.5606 33.2278 7.70075L33.8891 7.95231C34.1083 8.03138 34.3347 8.09606 34.5611 8.16435C34.8989 8.27935 35.2511 8.34403 35.5961 8.43028C35.9411 8.51653 36.3149 8.54888 36.6455 8.5956C36.9186 8.5956 37.1917 8.5956 37.4613 8.5956C37.7308 8.5956 38.0003 8.55607 38.2663 8.54528C38.3849 8.54528 38.4999 8.52013 38.6256 8.50575C39.0641 8.46263 39.2078 8.50575 39.3444 8.73216C39.3754 8.78048 39.4031 8.83091 39.427 8.8831C39.4917 9.052 39.3228 9.21372 38.9814 9.29638C38.4638 9.42385 37.9332 9.49138 37.4002 9.49763C37.1306 9.49763 36.8611 9.47247 36.588 9.4545C36.3149 9.43653 36.0453 9.37903 35.7758 9.33591C35.3769 9.26763 34.9816 9.15981 34.5899 9.05919C34.1981 8.95856 33.7813 8.86153 33.4219 8.707V8.68544Z" fill="#FAFAFA"/>
<path d="M14.4938 11.5855C15.5056 11.0884 16.4776 10.514 17.4012 9.86771C17.739 9.62693 18.0552 9.36099 18.3823 9.10943C19.5542 8.22701 20.6526 7.25111 21.667 6.1913C22.1175 5.72067 22.5399 5.22387 22.932 4.70349C23.1835 4.37287 23.4207 4.03146 23.6507 3.69365C23.8807 3.35584 24.161 3.03959 24.4054 2.71255C24.5599 2.5113 24.6749 2.59396 24.7252 2.87787C24.7509 3.05905 24.7509 3.24294 24.7252 3.42412C24.7055 3.66128 24.6357 3.89156 24.5204 4.09974C24.0535 4.8536 23.5347 5.57409 22.9679 6.25599C22.3963 6.9282 21.7714 7.55315 21.0991 8.12474C20.2977 8.81474 19.5179 9.5874 18.6662 10.2522C17.7305 10.9783 16.7432 11.6353 15.7121 12.218C15.0724 12.5774 14.422 12.908 13.7535 13.2027C12.7391 13.6468 11.6942 14.0179 10.627 14.3132C9.81282 14.5672 8.98493 14.7748 8.14727 14.9349C7.96039 14.9636 7.78789 15.0032 7.59023 15.0247C7.33607 15.0682 7.07531 15.0522 6.82836 14.978C6.7537 14.9536 6.6852 14.9133 6.62752 14.86C6.56984 14.8066 6.52435 14.7415 6.49414 14.669C6.45445 14.6019 6.42192 14.5308 6.39711 14.4569C6.33242 14.2233 6.60555 14.0077 7.07992 13.9071C7.4393 13.8424 7.79867 13.7454 8.15805 13.6807C8.51742 13.616 8.8768 13.5226 9.23617 13.4327C9.95492 13.2746 10.6737 13.0733 11.3924 12.8469C12.4601 12.5032 13.4985 12.0741 14.4974 11.564L14.4938 11.5855Z" fill="#FAFAFA"/>
<path d="M19.1439 20.1245C18.9108 21.064 18.8735 22.0414 19.0343 22.996C19.195 23.9505 19.5504 24.8618 20.0783 25.6732C20.4633 26.2743 20.9221 26.8248 21.4439 27.312C22.3542 28.1877 23.4644 28.8279 24.6783 29.1771C25.8982 29.5244 27.1962 29.4816 28.3906 29.0549C29.443 28.6376 30.378 27.9704 31.1147 27.1107C32.0155 25.9826 32.5853 24.6265 32.7606 23.1935C32.8038 22.7515 32.9655 22.791 33.1416 23.1935C33.2508 23.4763 33.3139 23.7748 33.3284 24.0776C33.3578 24.5025 33.2965 24.9288 33.1488 25.3282C32.8735 26.1082 32.4703 26.8369 31.9556 27.4845C31.6987 27.8129 31.4111 28.1161 31.0967 28.3901L30.6259 28.7926L30.1156 29.152C29.4126 29.6029 28.635 29.9253 27.8192 30.1043C27.004 30.2878 26.1615 30.3159 25.3359 30.187C23.3542 29.8404 21.5508 28.8258 20.2256 27.312C19.489 26.5027 18.9194 25.556 18.5494 24.5261C18.1793 23.4962 18.0162 22.4034 18.0694 21.3104C18.1629 19.9643 18.6255 18.6699 19.4063 17.5693C20.037 16.7772 20.8235 16.1229 21.717 15.6467C22.1504 15.4011 22.6022 15.1897 23.0683 15.0142C23.5292 14.8334 24.0023 14.6857 24.4842 14.5721C25.2305 14.3861 25.9972 14.2943 26.7663 14.299C27.5561 14.2985 28.3377 14.46 29.0627 14.7734C29.2244 14.8453 29.3753 14.9351 29.5334 15.0178C29.6875 15.1109 29.8351 15.2141 29.9755 15.3268C30.3533 15.6197 30.6482 16.0062 30.8308 16.4481C30.8791 16.563 30.9117 16.6838 30.9278 16.8074C30.9276 16.9018 30.9168 16.9958 30.8955 17.0877C30.8835 17.1568 30.8679 17.2252 30.8488 17.2926C30.8164 17.3717 30.723 17.2926 30.5577 17.1452C30.3924 16.9979 30.1983 16.732 29.918 16.4481C29.5033 16.0238 29.0019 15.6941 28.4481 15.4813C27.8716 15.2738 27.264 15.1656 26.6513 15.1615C25.3427 15.1614 24.05 15.4472 22.8634 15.9988C21.9771 16.3954 21.1708 16.9508 20.4844 17.6376C20.3259 17.8075 20.1771 17.9863 20.0388 18.1731C19.9741 18.2701 19.9202 18.3671 19.8555 18.4606L19.6974 18.7804L19.5356 19.1003L19.4063 19.4381C19.3182 19.6627 19.2462 19.8933 19.1906 20.1281L19.1439 20.1245Z" fill="#FAFAFA"/>
<path d="M30.7158 20.7818C30.2219 21.5217 29.78 22.295 29.3933 23.0961C29.246 23.3908 29.1382 23.7035 28.998 24.0054L28.6386 24.8068C28.5004 25.2345 28.2861 25.6338 28.0061 25.9855C27.951 26.0481 27.8803 26.0952 27.8013 26.1221H27.7366H27.7115H27.6719C27.6305 26.1175 27.5896 26.1091 27.5497 26.0969C27.3696 26.034 27.2035 25.9363 27.061 25.8094C26.8942 25.6626 26.738 25.5041 26.5938 25.335L26.3961 25.0943L26.2344 24.9182C25.9044 24.5127 25.5542 24.1241 25.1851 23.7538C24.9515 23.5202 24.7071 23.301 24.4663 23.0782L24.2938 22.9165L24.2076 22.841L24.1644 22.8015C24.1558 22.7823 24.1449 22.7642 24.1321 22.7475C24.0935 22.6808 24.0422 22.6222 23.9811 22.575C23.9277 22.5305 23.8713 22.4897 23.8122 22.4529C23.7044 22.3882 23.6541 22.2624 23.8913 22.151C24.0493 22.0963 24.2178 22.079 24.3836 22.1007C24.4961 22.0918 24.609 22.0918 24.7215 22.1007C24.8224 22.1335 24.918 22.1807 25.0054 22.2408C25.5903 22.6563 26.1246 23.1387 26.5974 23.6783L26.9532 24.0772L27.1221 24.2713L27.2047 24.3683C27.2299 24.3971 27.2047 24.3899 27.2263 24.4043C27.2527 24.4944 27.294 24.5794 27.3485 24.6558C27.3772 24.699 27.3988 24.6558 27.4168 24.6558C27.4349 24.6375 27.4506 24.617 27.4635 24.5947C27.4982 24.5341 27.5271 24.4704 27.5497 24.4043C27.6935 24.0054 27.8301 23.5921 27.999 23.1932C28.3659 22.3108 28.8021 21.4588 29.3035 20.6452C29.6129 20.1422 29.9475 19.6553 30.3061 19.1861C30.8591 18.4729 31.4894 17.8233 32.1857 17.2491C32.7048 16.782 33.2765 16.3768 33.8891 16.0416C34.0237 15.9659 34.163 15.8987 34.306 15.8404C34.4977 15.7545 34.7073 15.7162 34.9169 15.729C34.9791 15.7339 35.0396 15.7511 35.0951 15.7794C35.1506 15.8078 35.2 15.8468 35.2404 15.8943C35.2825 15.9338 35.321 15.9771 35.3554 16.0236C35.4488 16.171 35.2691 16.383 34.9529 16.5915C33.9947 17.1959 33.1179 17.9206 32.3438 18.7477C31.7517 19.3823 31.2166 20.0678 30.7446 20.7961L30.7158 20.7818Z" fill="#FAFAFA"/>
<path d="M27.8625 42.8253C23.3524 41.4956 18.0121 39.5478 15.9672 36.5111C14.0625 33.6936 12.6825 30.47 11.2954 27.3686C9.7177 23.8791 8.09691 20.3608 6.87145 16.7383L6.23535 17.9673C7.45723 21.597 9.0816 25.1189 10.6593 28.6048C12.0644 31.7062 13.4444 34.9298 15.3491 37.7509C17.1172 40.3708 25.0307 43.7202 26.5221 43.3033L27.8625 42.8253Z" fill="white"/>
<path d="M34.1838 9.95003C33.5372 9.77863 32.9022 9.56617 32.2827 9.31393C32.0563 9.22768 31.8263 9.13784 31.607 9.03721C30.8337 8.66497 30.0983 8.21845 29.4113 7.70393C29.2567 7.59612 29.1166 7.46674 28.9656 7.34456C28.8147 7.22237 28.6602 7.11815 28.5236 6.98518C28.387 6.85221 28.1642 6.67253 27.981 6.50362C27.8135 6.32839 27.6563 6.1436 27.5102 5.95018C27.3341 5.7094 27.945 5.68424 28.3188 6.04721C29.0195 6.68213 29.7641 7.26696 30.5469 7.79737C30.7842 7.9627 31.0355 8.107 31.298 8.22862L31.6969 8.41549L32.103 8.58081C32.6985 8.82861 33.3081 9.04101 33.9286 9.2169C34.3167 9.31034 34.7013 9.41456 35.0966 9.47924C35.6895 9.59812 36.2899 9.67617 36.8935 9.71284C37.3606 9.71284 37.817 9.71284 38.277 9.67331L38.5789 9.65174C38.9599 9.63378 39.0785 9.6769 39.1719 9.85299C39.1939 9.89106 39.2132 9.9307 39.2294 9.97159C39.2761 10.1082 39.1216 10.2267 38.8377 10.2807C38.407 10.3587 37.9708 10.402 37.5331 10.41C37.0828 10.4135 36.6327 10.3882 36.1855 10.3346C35.5148 10.2578 34.8497 10.1378 34.1945 9.97518L34.1838 9.95003Z" fill="#FAFAFA"/>
</svg>
