<svg width="24" height="24" viewBox="0 0 24 24" fill="none" xmlns="http://www.w3.org/2000/svg">
<path d="M17.7549 14.0009C18.0502 14.001 18.3427 14.0593 18.6155 14.1724C18.8883 14.2856 19.1362 14.4514 19.3449 14.6603C19.5536 14.8692 19.7192 15.1172 19.8321 15.3901C19.945 15.663 20.003 15.9555 20.0029 16.2509V16.8259C20.0029 17.7199 19.6829 18.5849 19.1029 19.2639C17.5329 21.0969 15.1459 22.0019 11.9999 22.0019C8.85391 22.0019 6.46791 21.0969 4.90191 19.2619C4.32251 18.5832 4.00411 17.7202 4.00391 16.8279V16.2499C4.00391 15.6534 4.24085 15.0813 4.66262 14.6596C5.08439 14.2378 5.65643 14.0009 6.25291 14.0009H17.7549ZM17.7549 15.5009H6.25191C6.15338 15.5007 6.05579 15.52 5.96474 15.5577C5.87368 15.5953 5.79095 15.6506 5.72128 15.7202C5.65161 15.7899 5.59637 15.8726 5.55873 15.9637C5.52108 16.0547 5.50177 16.1523 5.50191 16.2509V16.8279C5.50191 17.3629 5.69391 17.8809 6.04191 18.2879C7.29491 19.7569 9.26191 20.5019 11.9989 20.5019C14.7379 20.5019 16.7049 19.7569 17.9619 18.2889C18.3106 17.8812 18.5021 17.3623 18.5019 16.8259V16.2499C18.5019 16.0514 18.4231 15.861 18.2829 15.7206C18.1426 15.5802 17.9534 15.5011 17.7549 15.5009ZM11.9999 2.00586C12.6565 2.00586 13.3067 2.13519 13.9133 2.38646C14.52 2.63774 15.0711 3.00603 15.5354 3.47033C15.9997 3.93462 16.368 4.48581 16.6193 5.09244C16.8706 5.69907 16.9999 6.34925 16.9999 7.00586C16.9999 7.66247 16.8706 8.31265 16.6193 8.91928C16.368 9.5259 15.9997 10.0771 15.5354 10.5414C15.0711 11.0057 14.52 11.374 13.9133 11.6253C13.3067 11.8765 12.6565 12.0059 11.9999 12.0059C10.6738 12.0059 9.40205 11.4791 8.46437 10.5414C7.52669 9.60371 6.99991 8.33194 6.99991 7.00586C6.99991 5.67978 7.52669 4.40801 8.46437 3.47033C9.40205 2.53264 10.6738 2.00586 11.9999 2.00586ZM11.9999 3.50586C11.5403 3.50586 11.0852 3.59639 10.6605 3.77228C10.2359 3.94817 9.85004 4.20598 9.52503 4.53099C9.20003 4.85599 8.94222 5.24183 8.76633 5.66647C8.59044 6.09111 8.49991 6.54623 8.49991 7.00586C8.49991 7.46549 8.59044 7.92061 8.76633 8.34525C8.94222 8.76989 9.20003 9.15573 9.52503 9.48073C9.85004 9.80574 10.2359 10.0635 10.6605 10.2394C11.0852 10.4153 11.5403 10.5059 11.9999 10.5059C12.9282 10.5059 13.8184 10.1371 14.4748 9.48073C15.1312 8.82436 15.4999 7.93412 15.4999 7.00586C15.4999 6.0776 15.1312 5.18736 14.4748 4.53099C13.8184 3.87461 12.9282 3.50586 11.9999 3.50586Z" fill="#BDBDBD"/>
</svg>
