<svg width="254" height="16" viewBox="0 0 254 16" fill="none" xmlns="http://www.w3.org/2000/svg">
<path fill-rule="evenodd" clip-rule="evenodd" d="M84.0212 1.37167C56.073 1.0499 28.0107 2.2258 0.959096 7.16343C0.476449 7.25118 0.276086 7.42377 0.236596 7.46326C0.00551089 7.69727 -0.0193956 7.9459 0.00985574 8.15066C0.0274065 8.27498 0.145926 8.80003 0.793843 8.85415C1.24139 8.89071 4.41803 8.63477 5.64367 8.56895C11.4135 8.26035 17.1717 7.82012 22.9269 7.31115C35.9759 6.16157 49.0073 5.16703 62.0768 4.2617C69.4145 3.75273 76.7551 3.33149 84.0914 2.98633C101.74 3.19255 119.345 3.99697 136.621 4.82771C129.754 5.25039 123.445 5.67892 118.213 5.95681C109.391 6.42483 100.585 6.97768 91.7801 7.70603C87.2564 8.07899 82.7385 8.48413 78.2235 8.96239C77.7233 9.01651 76.584 9.07208 76.0326 9.13789C75.7986 9.16422 75.629 9.20664 75.5529 9.23589C75.0761 9.42017 75.0162 9.7975 75.0103 9.98763C75.0074 10.1032 75.0469 10.7336 75.8513 10.8564C113.254 16.6218 152.275 9.91452 189.812 15.5191C190.252 15.5849 190.664 15.2807 190.73 14.839C190.796 14.3987 190.492 13.9863 190.05 13.9205C154.697 8.64207 118.026 14.2861 82.6274 10.1427C85.7207 9.84285 88.8155 9.57227 91.9132 9.31632C100.702 8.58943 109.492 8.03805 118.299 7.57002C127.163 7.10054 139.144 6.1835 151.685 5.60579C162.448 6.20544 173.206 6.87822 183.97 7.44862C188.511 7.68848 193.054 7.8874 197.594 8.13165C199.46 8.2311 204.262 8.64793 204.958 8.4929C205.499 8.3715 205.629 7.98393 205.661 7.78941C205.695 7.5788 205.675 7.31699 205.429 7.06689C205.353 6.98791 205.125 6.82411 204.657 6.68956C191.998 3.06385 171.271 3.12089 151.858 3.99697C147.682 3.76296 143.507 3.54065 139.33 3.34028C129.767 2.87957 120.1 2.41739 110.377 2.05321C137.778 1.37604 165.192 1.57057 192.614 2.06053C204.127 2.26675 235.161 3.50994 247.384 4.60833C247.235 4.7619 247.147 4.97543 247.157 5.20798C247.178 5.6526 247.557 5.99776 248.003 5.97729C250.524 5.86028 251.982 5.7111 252.56 5.55753C252.92 5.46247 253.116 5.31036 253.206 5.2109C253.429 4.97104 253.47 4.71362 253.426 4.46937C253.398 4.31727 253.329 4.15054 253.171 3.99697C253.066 3.89166 252.809 3.73079 252.37 3.6211C247.565 2.42618 206.352 0.690098 192.643 0.444387C156.417 -0.202067 120.205 -0.333685 84.0212 1.37167ZM194.857 6.37071C187.779 5.4098 179.48 5.07195 170.823 5.09389C175.233 5.34984 179.644 5.59995 184.056 5.83396C187.656 6.02556 191.257 6.18935 194.857 6.37071ZM50.6337 3.45875C41.3464 4.14323 32.0693 4.88329 22.785 5.70232C21.7129 5.79593 20.6423 5.88807 19.5703 5.97875C29.8375 4.72094 40.2115 3.92092 50.6337 3.45875Z" fill="#C97B2C"/>
</svg>
